<svg xmlns="http://www.w3.org/2000/svg" width="256" height="256"><path fill="#1976D2" fill-opacity=".016" fill-rule="evenodd" d="M0 128.004v128.004l128.25-.254 128.25-.254.254-127.75L257.008 0H0zm.485.496c0 70.4.119 99.053.265 63.672s.146-92.98 0-128S.485 58.1.485 128.5"/><path fill="#1976D2" fill-opacity=".251" fill-rule="evenodd" d="M55.714 82.619c-.393.393-.77 6.602-.839 13.798-.099 10.425-.282 12.005-.898 7.775-1.41-9.687-6.135-11.608-14.614-5.942-6.694 4.473-12.529 13.469-15.23 23.481-3.88 14.379-4.915 29.462-2.461 35.858 1.376 3.585 5.159 3.596 13.175.041 4.209-1.867 8.894-3.682 10.411-4.033s4.216-1.941 6-3.532c3.093-2.761 3.265-3.299 3.742-11.729l.5-8.836 3.648-.304 3.649-.305.351 9.137c.339 8.8.469 9.242 3.508 11.956 1.735 1.551 5.785 3.578 9 4.506s7.194 2.506 8.844 3.507c2.954 1.792 5.252 2.345 8.801 2.118 7.393-.473 5.346-31.985-3.174-48.863-5.087-10.078-15.959-18.065-21.628-15.89-1.751.672-3.032 3.47-4.185 9.138-.64 3.147-.921 1.227-1.314-9l-.5-13-3.036-.297c-1.67-.164-3.357.024-3.75.416m.843 34.604c-.856 1.222-1.557 3.472-1.557 5 0 2.573.293 2.777 4 2.777 3.889 0 4-.095 4-3.429 0-3.214-2.051-6.571-4.015-6.571-.479 0-1.572 1-2.428 2.223m26.508 2.106c-.487 1.281-4.524 6.119-8.971 10.75C66.198 138.303 64.548 141 67.415 141c.778 0 3.266 2.103 5.528 4.672 2.293 2.606 4.456 4.265 4.89 3.75.427-.507 2.036-2.64 3.575-4.74s3.894-4.318 5.234-4.929c1.34-.61 2.306-1.78 2.147-2.598-.481-2.478-2.718-2.469-3.686.014-.5 1.282-2.537 3.89-4.526 5.796l-3.617 3.466-4.013-4.014-4.013-4.013 7.619-8.202c4.191-4.511 8.208-8.202 8.927-8.202 1.505 0 2.425-1.927 1.789-3.75-.719-2.063-3.257-1.412-4.204 1.079M107 128v11h5v-22h-5zm10.7-8.427c-7.158 7.157-2.862 19.427 6.802 19.427 6.584 0 12.733-5.921 7.555-7.275-1.155-.302-2.638.259-3.655 1.383-3.581 3.958-8.402.879-8.402-5.365 0-6.035 4.815-8.815 8.402-4.851 1.817 2.007 5.598 1.782 5.598-.334 0-.665-1.042-2.188-2.314-3.384-3.44-3.231-10.559-3.028-13.986.399m19.3 6.253c0 7.932.234 9.045 2.314 11 2.301 2.161 7.623 2.903 11.141 1.553 2.962-1.137 4.545-5.953 4.545-13.829 0-7.387-.054-7.55-2.5-7.55-2.442 0-2.5.171-2.5 7.429 0 7.447-1.292 10.571-4.371 10.571-2.718 0-3.629-2.56-3.629-10.2 0-7.653-.047-7.8-2.5-7.8-2.478 0-2.5.078-2.5 8.826m20 2.218v11.044l7.147-.294c6.399-.263 7.353-.571 9.122-2.946 1.871-2.512 1.889-2.826.338-5.935-1.109-2.221-1.31-3.61-.622-4.298 1.609-1.609 1.187-4.443-.985-6.615-1.59-1.59-3.333-2-8.5-2H157zm70.573-6.89c-1.746 3.5-2.028 5.846-.703 5.846.478 0 1.098 2.025 1.377 4.499.626 5.556 2.15 7.501 5.875 7.501 2.152 0 2.878-.475 2.878-1.883 0-1.043-.893-2.117-2-2.407-2.931-.766-2.861-7.252.087-8.022 2.393-.626 2.308-4.188-.101-4.188-.817 0-1.63-1.013-1.806-2.25-.477-3.365-3.739-2.84-5.607.904M163 123.5c0 2.86 2.943 3.479 4.964 1.044 1.615-1.946.477-3.544-2.523-3.544-1.937 0-2.441.516-2.441 2.5m17.315-.493c-4.806 1.936-5.944 10.114-1.933 13.882 4.21 3.956 11.732 2.571 13.666-2.515 1.571-4.134 1.104-6.376-1.971-9.451-2.969-2.969-5.779-3.521-9.762-1.916m18.185.148c-5.055 2.765-6.071 8.907-2.216 13.389 4.991 5.803 14.761 1.91 14.684-5.85-.065-6.543-6.821-10.628-12.468-7.539m15.723.402c-4.116 2.882-1.95 7.948 3.898 9.117 2.967.594 3.678 1.714 1.816 2.865-.585.361-1.918-.117-2.963-1.062-1.878-1.7-4.974-1.438-4.974.42 0 3.932 9.295 5.645 12.345 2.274 3.127-3.455 1.108-7.278-4.595-8.701-1.512-.378-2.75-1.088-2.75-1.578 0-1.217 2.734-1.132 3.5.108.918 1.486 4.5 1.211 4.5-.345 0-2.076-3.384-4.655-6.106-4.655-1.347 0-3.449.701-4.671 1.557m-32.556 4.11c-1.311 1.311-.657 6.123.915 6.726 2.535.973 3.281.732 4.438-1.431 1.553-2.9.309-5.962-2.421-5.962-1.246 0-2.566.3-2.932.667m17.717.775c-1.584 4.126 2.39 8.213 5.227 5.376 2.479-2.48 1.104-6.818-2.161-6.818-1.382 0-2.762.649-3.066 1.442M163 132.566c0 2.21.382 2.523 2.75 2.25 1.969-.226 2.841-.955 3.07-2.566.271-1.914-.139-2.25-2.75-2.25-2.629 0-3.07.369-3.07 2.566"/><path fill="#1976D2" fill-opacity=".452" fill-rule="evenodd" d="M56.667 82.667c-.367.366-.699 5.654-.737 11.75S55.473 106.4 55 107.5c-.788 1.835-.866 1.793-.935-.5-.158-5.205-2.171-10.091-4.616-11.205-7.451-3.395-24.29 14.617-24.811 26.539-.136 3.121-.06 3.174 5.362 3.756 3.025.325 5.654.471 5.841.325s1.116-3.335 2.064-7.09c1.538-6.094 1.983-6.825 4.159-6.825 2.289 0 2.587.678 4.933 11.25 1.373 6.188 2.819 11.25 3.211 11.25.393 0 1.194-1.781 1.781-3.958.586-2.177 1.503-4.228 2.038-4.559.535-.33.973-2.179.973-4.108 0-4.404 1.545-7.375 3.835-7.375 2.853 0 4.165 2.11 4.165 6.7v4.3h7.313c6.695 0 7.527-.232 9.853-2.75 1.398-1.513 2.83-3.571 3.184-4.574.792-2.244 3.998-1.825 4.461.583.208 1.076-.548 2.083-1.988 2.651-2.38.938-15.823 15.239-15.823 16.832 0 1.47 5.498 6.258 7.186 6.258 1.592 0 5.916-5.02 7.106-8.25.794-2.153 3.561-2.298 4.355-.228.38.99-1.01 2.925-3.975 5.536-2.508 2.207-4.84 4.897-5.183 5.978-.923 2.906-2.406 2.421-6.221-2.036-1.883-2.2-4.009-4-4.723-4-.715 0-1.895-.717-2.623-1.594-1.143-1.377-.75-2.07 2.894-5.097 2.32-1.926 4.676-4.359 5.236-5.406.949-1.773.606-1.903-5.017-1.903H63v7.766c0 10.316 1.922 14.03 8.613 16.642 2.688 1.05 7.75 3.187 11.249 4.75 12.001 5.36 14.147 3.593 14.121-11.631-.045-25.988-10.486-47.325-24.499-50.067-4.841-.948-6.764 1.27-7.28 8.391-.753 10.422-2.204 5.678-2.204-7.21 0-8.187-.397-12.638-1.2-13.441-1.307-1.307-4.072-1.595-5.133-.533M39.968 121.25c-.678 2.888-1.639 6.037-2.135 7-1.009 1.954-3.871 2.312-5.497.686-.585-.585-3.033-.923-5.438-.75-4.247.305-4.395.431-5.078 4.314-.388 2.2-.731 8.287-.762 13.527-.086 14.211 2.644 16.691 12.742 11.574 2.603-1.319 6.71-2.931 9.126-3.581 8.988-2.42 12.14-6.689 11.992-16.238l-.081-5.282-1.421 3.25c-.906 2.07-2.13 3.25-3.372 3.25-2.142 0-2.667-1.402-5.593-14.946-.957-4.43-2.08-8.054-2.496-8.054s-1.31 2.362-1.987 5.25M107 128c0 10.98.032 11.135 2.25 10.82 2.17-.309 2.25-.692 2.25-10.82s-.08-10.511-2.25-10.82c-2.218-.315-2.25-.16-2.25 10.82m10.923-8.077C115.449 122.398 115 123.637 115 128s.449 5.602 2.923 8.077c3.879 3.878 9.564 4.055 13.487.419 2.663-2.468 2.732-4.496.153-4.496-.725 0-1.878.675-2.563 1.5-1.65 1.988-6.412 1.914-8.105-.126-.742-.895-1.35-3.313-1.35-5.374s.608-4.479 1.35-5.374c1.693-2.04 6.455-2.114 8.105-.126.685.825 1.838 1.5 2.563 1.5 2.516 0 2.532-1.996.036-4.492-3.686-3.686-9.759-3.502-13.676.415M137 125.545c0 7.74.231 8.777 2.455 11 3.093 3.094 8.252 3.26 11.91.382 2.495-1.962 2.635-2.546 2.635-11 0-8.26-.149-8.927-2-8.927-1.829 0-2 .667-2 7.8 0 8.319-.86 10.2-4.665 10.2-3.214 0-4.335-2.828-4.335-10.934 0-6.399-.189-7.066-2-7.066-1.844 0-2 .667-2 8.545M158 128v11h5.777c6.987 0 10.223-1.878 10.223-5.934 0-1.552-.636-3.349-1.414-3.995-1.182-.98-1.2-1.587-.111-3.686 2.74-5.28-.786-8.385-9.522-8.385H158zm71-7c0 1.111-.667 2-1.5 2-.825 0-1.5.627-1.5 1.393s.675 1.652 1.5 1.969c1.056.405 1.5 2.053 1.5 5.571 0 3.917.418 5.22 1.934 6.032 3.038 1.626 5.066 1.239 5.066-.965 0-1.111-.667-2-1.5-2-1.111 0-1.5-1.167-1.5-4.5s.389-4.5 1.5-4.5c.825 0 1.5-.675 1.5-1.5s-.675-1.5-1.5-1.5c-.833 0-1.5-.889-1.5-2q0-2-2-2t-2 2m-67 2.5c0 2.361.329 2.595 3.25 2.313 2.479-.239 3.25-.788 3.25-2.313s-.771-2.074-3.25-2.313c-2.921-.282-3.25-.048-3.25 2.313m19.357-.509c-5.441 2.198-6.996 9.46-2.902 13.554 5.311 5.312 13.545 1.75 13.545-5.859 0-3.517-2.668-7.686-4.918-7.686-.505 0-1.518-.197-2.25-.437-.733-.241-2.296-.048-3.475.428m17.673.264c-9.888 5.1-3.002 19.125 7.425 15.124 2.517-.966 4.757-6.136 4.052-9.348-1.155-5.259-6.886-8.144-11.477-5.776m17.285-.239c-5.424 2.163-4.37 8.123 1.649 9.327 1.789.358 3.036 1.234 3.036 2.132 0 1.917-3.869 2.031-4.596.136-.553-1.442-4.404-1.049-4.404.449 0 1.483 4.384 3.94 7.031 3.94 3.971 0 6.194-2.125 5.805-5.549-.263-2.308-1.033-3.176-3.538-3.986-3.901-1.261-4.708-1.993-3.806-3.453.495-.8 1.335-.7 2.932.347 2.933 1.921 5.899.498 3.576-1.716-2.109-2.009-5.125-2.647-7.685-1.627m-33.888 3.735c-3.477 2.427-2.003 8.249 2.089 8.249 1.813 0 2.618-.687 3.112-2.655 1.046-4.167-2.217-7.676-5.201-5.594m17.623.689c-.657.791-1.049 2.704-.872 4.25.273 2.384.777 2.81 3.322 2.81s3.049-.426 3.322-2.81c.342-2.983-1.239-5.69-3.322-5.69-.69 0-1.793.648-2.45 1.44M162 132c0 2.744.29 3 3.393 3 2.211 0 3.61-.567 4.017-1.627.9-2.345-1.202-4.373-4.532-4.373-2.531 0-2.878.362-2.878 3"/><path fill="#1976D2" fill-opacity=".398" fill-rule="evenodd" d="M56 94.918c0 6.555-.273 12.63-.607 13.5-1.162 3.029-2.393 1.552-2.393-2.871 0-2.449-.522-5.599-1.161-7-2.489-5.464-12.625-1.938-19.196 6.677-2.797 3.667-7.124 12.663-8.189 17.026-.655 2.686-.568 2.75 3.738 2.75 2.424 0 4.933.525 5.575 1.167 1.336 1.336 1.268 1.477 3.799-7.889 1.683-6.228 4.303-8.809 6.605-6.507.534.534 2 5.54 3.258 11.125 2.118 9.394 3.562 13.442 3.577 10.021.004-.779.607-2.569 1.342-3.976.734-1.408 1.651-4.535 2.038-6.951.852-5.329 2.102-6.99 5.261-6.99 2.582 0 4.353 3.078 4.353 7.565 0 2.357.233 2.435 7.25 2.428l7.25-.007 2.491-3.743c1.37-2.059 2.93-4.055 3.467-4.436 1.022-.726 3.542.864 3.542 2.234 0 .438-4.121 4.918-9.157 9.954l-9.157 9.157 3.638 3.639 3.638 3.638 3.519-3.411c1.936-1.876 3.519-3.942 3.519-4.592s.627-1.702 1.394-2.338c1.075-.892 1.752-.799 2.958.406 1.683 1.684 1.2 4.506-.772 4.506-1.435 0-5.862 4.579-7.493 7.75-1.634 3.177-3.662 2.803-7.306-1.346-1.736-1.978-4.198-3.992-5.469-4.476-2.812-1.068-3.093-4.693-.443-5.71 1.028-.395 3.093-2.181 4.589-3.968l2.72-3.25H64v8.423c0 10.503 1.805 13.209 10.662 15.987 3.211 1.007 8.03 2.937 10.709 4.289C94.191 162.149 97 159.46 97 146.566c0-17.126-5.073-34.094-12.744-42.626C79.145 98.255 75.429 96 71.172 96c-3.931 0-5.194 1.812-5.877 8.431-.316 3.063-.909 5.569-1.318 5.569-1.391 0-1.95-4.481-1.963-15.75L62 83h-6zm-15.92 27.617c-1.378 6.157-3.505 8.957-5.959 7.845-.892-.404-3.695-.919-6.231-1.144-3.674-.327-4.743-.062-5.267 1.304-1.135 2.958-1.787 21.818-.862 24.96 1.37 4.659 4.945 5.386 10.976 2.233 2.717-1.421 7.375-3.306 10.351-4.19C51.641 151.002 54 148.271 54 140.911v-4.221l-2.095 1.896c-2.061 1.865-2.124 1.862-3.776-.178-.924-1.141-2.52-6.213-3.546-11.27-1.027-5.058-2.185-9.392-2.574-9.632s-1.257 2.023-1.929 5.029m80.03-4.139c-7.231 4.007-6.566 16.855 1.009 19.496 4.671 1.628 6.453 1.382 9.575-1.322 2.126-1.842 2.527-2.715 1.654-3.603-.879-.893-1.89-.626-4.255 1.122l-3.103 2.294-2.745-2.049c-2.247-1.678-2.745-2.827-2.745-6.334s.498-4.656 2.745-6.334l2.745-2.049 2.842 2.101c1.955 1.445 3.284 1.811 4.255 1.174 1.144-.751.878-1.401-1.393-3.41-3.09-2.733-6.906-3.125-10.584-1.086M108 128c0 8.222.267 10 1.5 10s1.5-1.778 1.5-10-.267-10-1.5-10-1.5 1.778-1.5 10m29-3.047c0 3.824.508 8.069 1.13 9.432 2.298 5.045 11.186 5.857 14.369 1.313 1.022-1.46 1.501-4.623 1.501-9.921 0-7.11-.171-7.777-2-7.777-1.834 0-2 .667-2 8.032 0 7.405-.176 8.101-2.25 8.905-1.487.577-2.929.441-4.25-.4-1.664-1.059-2.049-2.554-2.292-8.905-.261-6.811-.503-7.632-2.25-7.632-1.756 0-1.958.716-1.958 6.953M158 128v10h6.429c4.51 0 6.897-.469 8-1.571 2.045-2.045 2-5.298-.105-7.624-1.286-1.42-1.402-2.127-.5-3.029 1.522-1.522 1.509-5.043-.024-6.576-.679-.679-3.933-1.2-7.5-1.2H158zm71-7c0 1.1-.45 2-1 2s-1 .675-1 1.5.45 1.5 1 1.5 1 1.988 1 4.418c0 6.211.743 7.582 4.107 7.582 3.073 0 3.899-1.4 1.393-2.362-1.028-.394-1.5-2.001-1.5-5.107 0-3.361.387-4.531 1.5-4.531.825 0 1.5-.675 1.5-1.5s-.675-1.5-1.5-1.5c-.833 0-1.5-.889-1.5-2q0-2-2-2t-2 2m-67 2.063c0 2.853.223 3.042 3.242 2.75 5.628-.544 4.736-5.759-.992-5.798-1.847-.012-2.25.534-2.25 3.048m17.337 1.414c-4.459 3.122-3.695 11.128 1.278 13.393 3.793 1.729 6.24 1.366 8.93-1.325 3.037-3.036 3.188-7.344.382-10.91-2.385-3.033-7.167-3.556-10.59-1.158M197 125c-3.058 3.058-2.727 9.283.635 11.927 1.449 1.14 3.638 2.073 4.865 2.073s3.416-.933 4.865-2.073c2.048-1.61 2.635-2.948 2.635-6 0-5.047-2.725-7.927-7.5-7.927-2.167 0-4.262.762-5.5 2m17.046-.555c-2.386 2.874-.84 5.962 3.704 7.4 2.338.74 4.25 1.766 4.25 2.281 0 1.697-3.091 2.163-5.566.839-1.337-.716-2.712-1.02-3.056-.676-1.307 1.307.61 3.55 3.595 4.205 3.731.82 8.027-1.567 8.027-4.46 0-2.149-3.533-5.034-6.163-5.034-2.235 0-3.364-1.873-1.97-3.267.79-.79 1.763-.734 3.514.203 3.356 1.796 5.413 1.001 3.182-1.231-2.081-2.081-7.875-2.239-9.517-.26M181.2 127.2c-1.683 1.683-1.494 5.364.371 7.229 1.86 1.859 1.993 1.875 4.495.536 3.602-1.928 1.98-8.965-2.066-8.965-.88 0-2.14.54-2.8 1.2m17.637 1.259c-.898 1.969-.789 2.965.544 5 .916 1.398 2.319 2.541 3.119 2.541s2.203-1.143 3.119-2.541c2.253-3.438.572-7.459-3.119-7.459-1.731 0-2.901.785-3.663 2.459M162 132.5c0 2.87.372 3.5 2.066 3.5 3.137 0 5.934-1.852 5.934-3.928 0-2.043-1.87-3.072-5.582-3.072-2.097 0-2.418.465-2.418 3.5"/></svg>